<?xml version='1.0' encoding='UTF-8' standalone='no'?>
<!-- Created with Fritzing (http://www.fritzing.org/) -->
<svg xmlns="http://www.w3.org/2000/svg" viewBox="0 0 370.826 230.655" x="0in" version="1.2" width="5.15035in" xmlns:svg="http://www.w3.org/2000/svg" y="0in" height="3.20354in"  baseProfile="tiny">
 <g transform="matrix(-1, 0, 0, 1, 370.826, 0)">
  <g partID="854243882">
   <g transform="translate(370.826,230.655)">
    <g transform="matrix(-1,0,0,-1,0,0)">
     <g id="silkscreen0">
      <rect fill="none" stroke-width="0.576" x="0.288" stroke="black" width="370.25" height="230.079" y="0.288"/>
     </g>
    </g>
   </g>
  </g>
  <g partID="854243880">
   <g transform="translate(370.826,230.655)">
    <g transform="matrix(-1,0,0,-1,0,0)">
     <g id="board">
      <rect fill="none" stroke-width="0.5" x="0.288" stroke="black" id="boardoutline" width="370.25" height="230.079" y="0.288" fill-opacity="0.5"/>
     </g>
    </g>
   </g>
  </g>
  <g partID="854243882">
   <g transform="translate(370.826,230.655)">
    <g transform="matrix(-1,0,0,-1,0,0)">
     <g id="silkscreen0">
      <rect fill="none" stroke-width="0.576" x="0.288" stroke="black" width="370.25" height="230.079" y="0.288"/>
     </g>
    </g>
   </g>
  </g>
  <g partID="854244890">
   <g transform="translate(234.006,224.615)">
    <g transform="matrix(-1,0,0,-1,0,0)">
     <g id="copper0">
      <circle fill="white" stroke-width="2.16" stroke="white" cy="5.04" id="connector0pin" cx="5.04" r="2.088"/>
      <circle fill="white" stroke-width="2.16" stroke="white" cy="12.24" id="connector1pin" cx="5.04" r="2.088"/>
      <circle fill="white" stroke-width="2.16" stroke="white" cy="19.44" id="connector2pin" cx="5.04" r="2.088"/>
      <circle fill="white" stroke-width="2.16" stroke="white" cy="26.64" id="connector3pin" cx="5.04" r="2.088"/>
      <circle fill="white" stroke-width="2.16" stroke="white" cy="33.84" id="connector4pin" cx="5.04" r="2.088"/>
      <circle fill="white" stroke-width="2.16" stroke="white" cy="41.04" id="connector5pin" cx="5.04" r="2.088"/>
     </g>
    </g>
   </g>
  </g>
  <g partID="854209600">
   <g transform="translate(224.214,142.823)">
    <g id="copper0">
     <circle fill="white" stroke-width="2.16" stroke="white" cy="4.752" id="connector0pad" cx="4.752" r="1.98"/>
     <circle fill="white" stroke-width="2.16" stroke="white" cy="26.352" id="connector1pad" cx="4.752" r="1.98"/>
    </g>
   </g>
  </g>
  <g partID="854140790">
   <g transform="translate(339.126,84.9349)">
    <g id="copper0">
     <circle fill="white" stroke-width="2.16" stroke="white" cy="5.04" id="connector0pin" cx="5.04" r="2.088"/>
     <circle fill="white" stroke-width="2.16" stroke="white" cy="12.24" id="connector1pin" cx="5.04" r="2.088"/>
     <circle fill="white" stroke-width="2.16" stroke="white" cy="19.44" id="connector2pin" cx="5.04" r="2.088"/>
    </g>
   </g>
  </g>
  <g partID="854160850">
   <g transform="translate(159.126,131.015)">
    <g transform="matrix(0,-1,1,0,0,0)">
     <g id="copper0">
      <circle fill="white" stroke-width="2.16" stroke="white" cy="5.04" id="connector0pin" cx="5.04" r="2.088"/>
      <circle fill="white" stroke-width="2.16" stroke="white" cy="12.24" id="connector1pin" cx="5.04" r="2.088"/>
      <circle fill="white" stroke-width="2.16" stroke="white" cy="19.44" id="connector2pin" cx="5.04" r="2.088"/>
      <circle fill="white" stroke-width="2.16" stroke="white" cy="26.64" id="connector3pin" cx="5.04" r="2.088"/>
      <circle fill="white" stroke-width="2.16" stroke="white" cy="33.84" id="connector4pin" cx="5.04" r="2.088"/>
     </g>
    </g>
   </g>
  </g>
  <g partID="854125340">
   <g transform="translate(90.5162,136.775)">
    <g transform="matrix(1,0,0,1,0,0)">
     <g gorn="0.2.0" id="copper0">
      <circle fill="white" stroke-width="1.82268" connectorname="AD5/SCL" stroke="white" gorn="0.2.0.0" cy="46.8" id="connector22pad" r="1.96865" cx="109.65"/>
      <circle fill="white" stroke-width="1.82268" connectorname="AD4/SDA" stroke="white" gorn="0.2.0.1" cy="46.8" id="connector23pad" r="1.96865" cx="102.45"/>
      <circle fill="white" stroke-width="1.82268" connectorname="AD3" stroke="white" gorn="0.2.0.2" cy="46.8" id="connector24pad" r="1.96865" cx="95.2491"/>
      <circle fill="white" stroke-width="1.82268" connectorname="AD2" stroke="white" gorn="0.2.0.3" cy="46.8" id="connector25pad" r="1.96865" cx="88.0492"/>
      <circle fill="white" stroke-width="1.82268" connectorname="AD1" stroke="white" gorn="0.2.0.4" cy="46.8" id="connector26pad" r="1.96865" cx="80.8492"/>
      <circle fill="white" stroke-width="1.82268" connectorname="AD0" stroke="white" gorn="0.2.0.5" cy="46.8" id="connector27pad" r="1.96865" cx="73.6492"/>
      <circle fill="white" stroke-width="1.82268" connectorname="IO13" stroke="white" gorn="0.2.0.6" cy="3.6" id="connector28pad" r="1.96865" cx="16.0496"/>
      <circle fill="white" stroke-width="1.82268" connectorname="IO12" stroke="white" gorn="0.2.0.7" cy="3.6" id="connector29pad" r="1.96865" cx="23.2496"/>
      <circle fill="white" stroke-width="1.82268" connectorname="IO11" stroke="white" gorn="0.2.0.8" cy="3.6" id="connector30pad" r="1.96865" cx="30.4496"/>
      <circle fill="white" stroke-width="1.82268" connectorname="IO10" stroke="white" gorn="0.2.0.9" cy="3.6" id="connector31pad" r="1.96865" cx="37.6496"/>
      <circle fill="white" stroke-width="1.82268" connectorname="IO9" stroke="white" gorn="0.2.0.10" cy="3.6" id="connector32pad" r="1.96865" cx="44.8495"/>
      <circle fill="white" stroke-width="1.82268" connectorname="IO8" stroke="white" gorn="0.2.0.11" cy="3.6" id="connector33pad" r="1.96865" cx="52.0495"/>
      <circle fill="white" stroke-width="1.82268" connectorname="IO7" stroke="white" gorn="0.2.0.12" cy="3.6" id="connector34pad" r="1.96865" cx="59.2495"/>
      <circle fill="white" stroke-width="1.82268" connectorname="IO6" stroke="white" gorn="0.2.0.13" cy="3.6" id="connector35pad" r="1.96865" cx="66.4494"/>
      <circle fill="white" stroke-width="1.82268" connectorname="IO5" stroke="white" gorn="0.2.0.14" cy="3.6" id="connector36pad" r="1.96865" cx="73.6492"/>
      <circle fill="white" stroke-width="1.82268" connectorname="IO4" stroke="white" gorn="0.2.0.15" cy="3.6" id="connector37pad" r="1.96865" cx="80.8492"/>
      <circle fill="white" stroke-width="1.82268" connectorname="IO3" stroke="white" gorn="0.2.0.16" cy="3.6" id="connector38pad" r="1.96865" cx="88.0492"/>
      <circle fill="white" stroke-width="1.82268" connectorname="IO2" stroke="white" gorn="0.2.0.17" cy="3.6" id="connector39pad" r="1.96865" cx="95.2491"/>
      <circle fill="white" stroke-width="1.82268" connectorname="IO1" stroke="white" gorn="0.2.0.18" cy="3.6" id="connector40pad" r="1.96865" cx="102.45"/>
      <circle fill="white" stroke-width="1.82268" connectorname="IO0" stroke="white" gorn="0.2.0.19" cy="3.6" id="connector41pad" r="1.96865" cx="109.65"/>
      <circle fill="white" stroke-width="1.82268" connectorname="VBUS" stroke="white" gorn="0.2.0.20" cy="46.8" id="connector42pad" r="1.96865" cx="16.0496"/>
      <circle fill="white" stroke-width="1.82268" connectorname="RESET" stroke="white" gorn="0.2.0.21" cy="46.8" id="connector43pad" r="1.96865" cx="23.2496"/>
      <circle fill="white" stroke-width="1.82268" connectorname="3.3V" stroke="white" gorn="0.2.0.22" cy="46.8" id="connector44pad" r="1.96865" cx="30.4496"/>
      <circle fill="white" stroke-width="1.82268" connectorname="+5V" stroke="white" gorn="0.2.0.23" cy="46.8" id="connector45pad" r="1.96865" cx="37.6496"/>
      <circle fill="white" stroke-width="1.82268" connectorname="GND" stroke="white" gorn="0.2.0.24" cy="46.8" id="connector46pad" r="1.96865" cx="44.8495"/>
      <circle fill="white" stroke-width="1.82268" connectorname="GND" stroke="white" gorn="0.2.0.25" cy="46.8" id="connector47pad" r="1.96865" cx="52.0495"/>
      <circle fill="white" stroke-width="1.82268" connectorname="VIN" stroke="white" gorn="0.2.0.26" cy="46.8" id="connector48pad" r="1.96865" cx="59.2495"/>
      <circle fill="white" stroke-width="1.82268" connectorname="AREF" stroke="white" gorn="0.2.0.27" cy="46.8" id="connector49pad" r="1.96865" cx="66.4494"/>
     </g>
    </g>
   </g>
  </g>
  <g partID="854127040">
   <g transform="translate(346.866,57.0709)">
    <g transform="matrix(-1,0,0,-1,0,0)">
     <g id="copper0">
      <g id="copper1">
       <!-- <rect width="55" x="10" y="15.5" fill="none" height="55" stroke="rgb(255, 191, 0)" stroke-width="20" />  -->
       <circle fill="white" stroke-width="2.16" stroke="white" cy="3.096" id="connector0pin" cx="2.7" r="1.98"/>
       <circle fill="white" stroke-width="2.16" stroke="white" cy="3.096" id="connector1pin" cx="31.5" r="1.98"/>
      </g>
     </g>
    </g>
   </g>
  </g>
  <g partID="854127020">
   <g transform="translate(346.866,49.8709)">
    <g transform="matrix(-1,0,0,-1,0,0)">
     <g id="copper0">
      <g id="copper1">
       <!-- <rect width="55" x="10" y="15.5" fill="none" height="55" stroke="rgb(255, 191, 0)" stroke-width="20" />  -->
       <circle fill="white" stroke-width="2.16" stroke="white" cy="3.096" id="connector0pin" cx="2.7" r="1.98"/>
       <circle fill="white" stroke-width="2.16" stroke="white" cy="3.096" id="connector1pin" cx="31.5" r="1.98"/>
      </g>
     </g>
    </g>
   </g>
  </g>
  <g partID="854127000">
   <g transform="translate(346.866,42.6709)">
    <g transform="matrix(-1,0,0,-1,0,0)">
     <g id="copper0">
      <g id="copper1">
       <!-- <rect width="55" x="10" y="15.5" fill="none" height="55" stroke="rgb(255, 191, 0)" stroke-width="20" />  -->
       <circle fill="white" stroke-width="2.16" stroke="white" cy="3.096" id="connector0pin" cx="2.7" r="1.98"/>
       <circle fill="white" stroke-width="2.16" stroke="white" cy="3.096" id="connector1pin" cx="31.5" r="1.98"/>
      </g>
     </g>
    </g>
   </g>
  </g>
  <g partID="854126970">
   <g transform="translate(346.866,35.4709)">
    <g transform="matrix(-1,0,0,-1,0,0)">
     <g id="copper0">
      <g id="copper1">
       <!-- <rect width="55" x="10" y="15.5" fill="none" height="55" stroke="rgb(255, 191, 0)" stroke-width="20" />  -->
       <circle fill="white" stroke-width="2.16" stroke="white" cy="3.096" id="connector0pin" cx="2.7" r="1.98"/>
       <circle fill="white" stroke-width="2.16" stroke="white" cy="3.096" id="connector1pin" cx="31.5" r="1.98"/>
      </g>
     </g>
    </g>
   </g>
  </g>
  <g partID="854133100">
   <g transform="translate(76.6858,17.9749)">
    <g id="copper0">
     <rect fill="white" stroke-width="2.16" x="20.664" stroke="white" width="3.96" height="3.96" y="5.184"/>
     <circle fill="white" stroke-width="2.16" stroke="white" cy="7.2" id="connector0pin" cx="22.68" r="1.98"/>
     <circle fill="white" stroke-width="2.16" stroke="white" cy="7.2" id="connector1pin" cx="29.88" r="1.98"/>
     <circle fill="white" stroke-width="2.16" stroke="white" cy="7.2" id="connector2pin" cx="37.08" r="1.98"/>
     <circle fill="white" stroke-width="2.16" stroke="white" cy="7.2" id="connector3pin" cx="44.28" r="1.98"/>
     <circle fill="white" stroke-width="2.16" stroke="white" cy="7.2" id="connector4pin" cx="51.48" r="1.98"/>
     <circle fill="white" stroke-width="2.16" stroke="white" cy="7.2" id="connector5pin" cx="58.68" r="1.98"/>
     <circle fill="white" stroke-width="2.16" stroke="white" cy="7.2" id="connector6pin" cx="65.88" r="1.98"/>
     <circle fill="white" stroke-width="2.16" stroke="white" cy="7.2" id="connector7pin" cx="73.08" r="1.98"/>
     <circle fill="white" stroke-width="2.16" stroke="white" cy="7.2" id="connector8pin" cx="80.28" r="1.98"/>
     <circle fill="white" stroke-width="2.16" stroke="white" cy="7.2" id="connector9pin" cx="87.48" r="1.98"/>
     <circle fill="white" stroke-width="2.16" stroke="white" cy="7.2" id="connector10pin" cx="94.68" r="1.98"/>
     <circle fill="white" stroke-width="2.16" stroke="white" cy="7.2" id="connector11pin" cx="101.88" r="1.98"/>
     <circle fill="white" stroke-width="2.16" stroke="white" cy="7.2" id="connector12pin" cx="109.08" r="1.98"/>
     <circle fill="white" stroke-width="2.16" stroke="white" cy="7.2" id="connector13pin" cx="116.28" r="1.98"/>
     <circle fill="white" stroke-width="2.16" stroke="white" cy="7.2" id="connector14pin" cx="123.48" r="1.98"/>
     <circle fill="white" stroke-width="2.16" stroke="white" cy="7.2" id="connector15pin" cx="130.68" r="1.98"/>
    </g>
   </g>
  </g>
  <g partID="854136030">
   <g transform="translate(346.866,64.2709)">
    <g transform="matrix(-1,0,0,-1,0,0)">
     <g id="copper0">
      <g id="copper1">
       <!-- <rect width="55" x="10" y="15.5" fill="none" height="55" stroke="rgb(255, 191, 0)" stroke-width="20" />  -->
       <circle fill="white" stroke-width="2.16" stroke="white" cy="3.096" id="connector0pin" cx="2.7" r="1.98"/>
       <circle fill="white" stroke-width="2.16" stroke="white" cy="3.096" id="connector1pin" cx="31.5" r="1.98"/>
      </g>
     </g>
    </g>
   </g>
  </g>
  <g partID="854136150">
   <g transform="translate(312.666,65.2789)">
    <g id="copper0">
     <g id="copper1">
      <!-- <rect width="55" x="10" y="15.5" fill="none" height="55" stroke="rgb(255, 191, 0)" stroke-width="20" />  -->
      <circle fill="white" stroke-width="2.16" stroke="white" cy="3.096" id="connector0pin" cx="2.7" r="1.98"/>
      <circle fill="white" stroke-width="2.16" stroke="white" cy="3.096" id="connector1pin" cx="31.5" r="1.98"/>
     </g>
    </g>
   </g>
  </g>
  <g partID="854138530">
   <g transform="translate(311.046,78.4549)">
    <g stroke-width="0" gorn="0.3.0.0.0.0" id="copper0">
     <g id="copper1">
      <rect stroke-width="2.16" fill="white" x="2.34" stroke="white" gorn="0.3.0.0.0.0.0" width="3.96" id="rect6" y="2.34" height="3.96"/>
      <circle stroke-width="2.16" fill="white" stroke="white" d="M 87.5,60 C 87.5,75.187831 75.187831,87.5 60,87.5 44.812169,87.5 32.5,75.187831 32.5,60 32.5,44.812169 44.812169,32.5 60,32.5 75.187831,32.5 87.5,44.812169 87.5,60 z" gorn="0.3.0.0.0.0.1" cy="4.32" id="connector0pin" cx="4.32" r="1.98"/>
      <circle stroke-width="2.16" fill="white" stroke="white" d="m 387.5,60 c 0,15.187831 -12.31217,27.5 -27.5,27.5 -15.18783,0 -27.5,-12.312169 -27.5,-27.5 0,-15.187831 12.31217,-27.5 27.5,-27.5 15.18783,0 27.5,12.312169 27.5,27.5 z" gorn="0.3.0.0.0.0.2" cy="4.32" id="connector16pin" cx="25.92" r="1.98"/>
      <circle stroke-width="2.16" fill="white" stroke="white" d="m 87.5,160 c 0,15.18783 -12.312169,27.5 -27.5,27.5 -15.187831,0 -27.5,-12.31217 -27.5,-27.5 0,-15.18783 12.312169,-27.5 27.5,-27.5 15.187831,0 27.5,12.31217 27.5,27.5 z" gorn="0.3.0.0.0.0.3" cy="11.52" id="connector1pin" cx="4.32" r="1.98"/>
      <circle stroke-width="2.16" fill="white" stroke="white" d="m 387.5,160 c 0,15.18783 -12.31217,27.5 -27.5,27.5 -15.18783,0 -27.5,-12.31217 -27.5,-27.5 0,-15.18783 12.31217,-27.5 27.5,-27.5 15.18783,0 27.5,12.31217 27.5,27.5 z" gorn="0.3.0.0.0.0.4" cy="11.52" id="connector15pin" cx="25.92" r="1.98"/>
      <circle stroke-width="2.16" fill="white" stroke="white" d="m 87.5,260 c 0,15.18783 -12.312169,27.5 -27.5,27.5 -15.187831,0 -27.5,-12.31217 -27.5,-27.5 0,-15.18783 12.312169,-27.5 27.5,-27.5 15.187831,0 27.5,12.31217 27.5,27.5 z" gorn="0.3.0.0.0.0.5" cy="18.72" id="connector2pin" cx="4.32" r="1.98"/>
      <circle stroke-width="2.16" fill="white" stroke="white" d="m 387.5,260 c 0,15.18783 -12.31217,27.5 -27.5,27.5 -15.18783,0 -27.5,-12.31217 -27.5,-27.5 0,-15.18783 12.31217,-27.5 27.5,-27.5 15.18783,0 27.5,12.31217 27.5,27.5 z" gorn="0.3.0.0.0.0.6" cy="18.72" id="connector14pin" cx="25.92" r="1.98"/>
      <circle stroke-width="2.16" fill="white" stroke="white" d="m 87.5,360 c 0,15.18783 -12.312169,27.5 -27.5,27.5 -15.187831,0 -27.5,-12.31217 -27.5,-27.5 0,-15.18783 12.312169,-27.5 27.5,-27.5 15.187831,0 27.5,12.31217 27.5,27.5 z" gorn="0.3.0.0.0.0.7" cy="25.92" id="connector3pin" cx="4.32" r="1.98"/>
      <circle stroke-width="2.16" fill="white" stroke="white" d="m 387.5,360 c 0,15.18783 -12.31217,27.5 -27.5,27.5 -15.18783,0 -27.5,-12.31217 -27.5,-27.5 0,-15.18783 12.31217,-27.5 27.5,-27.5 15.18783,0 27.5,12.31217 27.5,27.5 z" gorn="0.3.0.0.0.0.8" cy="25.92" id="connector13pin" cx="25.92" r="1.98"/>
      <circle stroke-width="2.16" fill="white" stroke="white" d="m 87.5,460 c 0,15.18783 -12.312169,27.5 -27.5,27.5 -15.187831,0 -27.5,-12.31217 -27.5,-27.5 0,-15.18783 12.312169,-27.5 27.5,-27.5 15.187831,0 27.5,12.31217 27.5,27.5 z" gorn="0.3.0.0.0.0.9" cy="33.12" id="connector4pin" cx="4.32" r="1.98"/>
      <circle stroke-width="2.16" fill="white" stroke="white" d="m 387.5,460 c 0,15.18783 -12.31217,27.5 -27.5,27.5 -15.18783,0 -27.5,-12.31217 -27.5,-27.5 0,-15.18783 12.31217,-27.5 27.5,-27.5 15.18783,0 27.5,12.31217 27.5,27.5 z" gorn="0.3.0.0.0.0.10" cy="33.12" id="connector12pin" cx="25.92" r="1.98"/>
      <circle stroke-width="2.16" fill="white" stroke="white" d="m 87.5,560 c 0,15.18783 -12.312169,27.5 -27.5,27.5 -15.187831,0 -27.5,-12.31217 -27.5,-27.5 0,-15.18783 12.312169,-27.5 27.5,-27.5 15.187831,0 27.5,12.31217 27.5,27.5 z" gorn="0.3.0.0.0.0.11" cy="40.32" id="connector5pin" cx="4.32" r="1.98"/>
      <circle stroke-width="2.16" fill="white" stroke="white" d="m 387.5,560 c 0,15.18783 -12.31217,27.5 -27.5,27.5 -15.18783,0 -27.5,-12.31217 -27.5,-27.5 0,-15.18783 12.31217,-27.5 27.5,-27.5 15.18783,0 27.5,12.31217 27.5,27.5 z" gorn="0.3.0.0.0.0.12" cy="40.32" id="connector11pin" cx="25.92" r="1.98"/>
      <circle stroke-width="2.16" fill="white" stroke="white" d="m 87.5,660 c 0,15.18783 -12.312169,27.5 -27.5,27.5 -15.187831,0 -27.5,-12.31217 -27.5,-27.5 0,-15.18783 12.312169,-27.5 27.5,-27.5 15.187831,0 27.5,12.31217 27.5,27.5 z" gorn="0.3.0.0.0.0.13" cy="47.52" id="connector7pin" cx="4.32" r="1.98"/>
      <circle stroke-width="2.16" fill="white" stroke="white" d="m 387.5,660 c 0,15.18783 -12.31217,27.5 -27.5,27.5 -15.18783,0 -27.5,-12.31217 -27.5,-27.5 0,-15.18783 12.31217,-27.5 27.5,-27.5 15.18783,0 27.5,12.31217 27.5,27.5 z" gorn="0.3.0.0.0.0.14" cy="47.52" id="connector10pin" cx="25.92" r="1.98"/>
      <circle stroke-width="2.16" fill="white" stroke="white" d="m 87.5,760 c 0,15.18783 -12.312169,27.5 -27.5,27.5 -15.187831,0 -27.5,-12.31217 -27.5,-27.5 0,-15.18783 12.312169,-27.5 27.5,-27.5 15.187831,0 27.5,12.31217 27.5,27.5 z" gorn="0.3.0.0.0.0.15" cy="54.72" id="connector8pin" cx="4.32" r="1.98"/>
      <circle stroke-width="2.16" fill="white" stroke="white" d="m 387.5,760 c 0,15.18783 -12.31217,27.5 -27.5,27.5 -15.18783,0 -27.5,-12.31217 -27.5,-27.5 0,-15.18783 12.31217,-27.5 27.5,-27.5 15.18783,0 27.5,12.31217 27.5,27.5 z" gorn="0.3.0.0.0.0.16" cy="54.72" id="connector9pin" cx="25.92" r="1.98"/>
     </g>
    </g>
   </g>
  </g>
  <g partID="854139290">
   <g transform="translate(233.07,157.475)">
    <g transform="matrix(-4.44089e-16,-1,1,-4.44089e-16,0,0)">
     <g id="copper0">
      <g id="copper1">
       <!-- <rect width="55" x="10" y="15.5" fill="none" height="55" stroke="rgb(255, 191, 0)" stroke-width="20" />  -->
       <circle fill="white" stroke-width="2.16" stroke="white" cy="3.096" id="connector0pin" cx="2.7" r="1.98"/>
       <circle fill="white" stroke-width="2.16" stroke="white" cy="3.096" id="connector1pin" cx="31.5" r="1.98"/>
      </g>
     </g>
    </g>
   </g>
  </g>
  <g partID="854139320">
   <g transform="translate(240.27,157.475)">
    <g transform="matrix(-4.44089e-16,-1,1,-4.44089e-16,0,0)">
     <g id="copper0">
      <g id="copper1">
       <!-- <rect width="55" x="10" y="15.5" fill="none" height="55" stroke="rgb(255, 191, 0)" stroke-width="20" />  -->
       <circle fill="white" stroke-width="2.16" stroke="white" cy="3.096" id="connector0pin" cx="2.7" r="1.98"/>
       <circle fill="white" stroke-width="2.16" stroke="white" cy="3.096" id="connector1pin" cx="31.5" r="1.98"/>
      </g>
     </g>
    </g>
   </g>
  </g>
  <g partID="854299210">
   <g transform="translate(61.2058,142.535)">
    <g transform="matrix(0,1,-1,0,0,0)">
     <g id="copper0">
      <circle fill="white" stroke-width="2.16" stroke="white" cy="5.04" id="connector0pin" cx="5.04" r="2.088"/>
     </g>
    </g>
   </g>
  </g>
  <g partID="854299170">
   <g transform="translate(51.1258,20.1349)">
    <g id="copper0">
     <circle fill="white" stroke-width="2.16" stroke="white" cy="5.04" id="connector0pin" cx="5.04" r="2.088"/>
    </g>
   </g>
  </g>
  <g partID="854299290">
   <g transform="translate(27.8052,205.751)">
    <g transform="matrix(0,-1,1,0,0,0)">
     <g id="copper0">
      <rect fill="white" stroke-width="2.16" x="5.616" stroke="white" id="square" width="4.32" height="4.32" y="4.60063"/>
      <circle fill="white" stroke-width="2.16" stroke="white" cy="6.76063" id="connector0pin" cx="7.776" r="2.16"/>
      <circle fill="white" stroke-width="2.16" stroke="white" cy="16.6819" id="connector1pin" cx="7.776" r="2.16"/>
     </g>
    </g>
   </g>
  </g>
  <g partID="854299250">
   <g transform="translate(0.725824,142.535)">
    <g id="copper0">
     <circle fill="white" stroke-width="2.16" stroke="white" cy="5.04" id="connector0pin" cx="5.04" r="2.088"/>
    </g>
   </g>
  </g>
  <g partID="854298790">
   <g transform="translate(0.725824,20.1349)">
    <g id="copper0">
     <circle fill="white" stroke-width="2.16" stroke="white" cy="5.04" id="connector0pin" cx="5.04" r="2.088"/>
    </g>
   </g>
  </g>
  <g partID="854298260">
   <g transform="translate(-2.8237,44.604)">
    <g id="copper0">
     <rect fill="white" stroke-width="0.72" x="1.6" stroke="white" id="connector0pad" width="28.379" y="1.6" height="15.5418" fill-opacity="1"/>
     <g fill="white" stroke-width="0.72" x="1.6" stroke="white" id="connector0terminal" width="28.379" y="1.6" height="15.5418"/>
    </g>
   </g>
  </g>
 </g>
</svg>
