<?xml version='1.0' encoding='UTF-8' standalone='no'?>
<!-- Created with Fritzing (http://www.fritzing.org/) -->
<svg xmlns="http://www.w3.org/2000/svg" viewBox="0 0 370.826 230.655" x="0in" version="1.2" width="5.15035in" xmlns:svg="http://www.w3.org/2000/svg" y="0in" height="3.20354in"  baseProfile="tiny">
 <g partID="854243880">
  <g transform="translate(370.826,230.655)">
   <g transform="matrix(-1,0,0,-1,0,0)">
    <g id="board" >
     <rect fill="none" stroke-width="0.5" x="0.288" stroke="black" id="boardoutline" width="370.25" height="230.079" y="0.288"  fill-opacity="0.5"/>
    </g>
   </g>
  </g>
 </g>
 <g partID="854244890">
  <g transform="translate(234.006,224.615)">
   <g transform="matrix(-1,0,0,-1,0,0)">
    <g id="copper0" >
     <g fill="none" stroke-width="1.44" stroke="black" cy="5.04" id="0" cx="5.04" r="2.088" />
     <g fill="none" stroke-width="1.44" stroke="black" cy="12.24" id="1" cx="5.04" r="2.088" />
     <g fill="none" stroke-width="1.44" stroke="black" cy="19.44" id="2" cx="5.04" r="2.088" />
     <g fill="none" stroke-width="1.44" stroke="black" cy="26.64" id="3" cx="5.04" r="2.088" />
     <g fill="none" stroke-width="1.44" stroke="black" cy="33.84" id="4" cx="5.04" r="2.088" />
     <g fill="none" stroke-width="1.44" stroke="black" cy="41.04" id="5" cx="5.04" r="2.088" />
    </g>
   </g>
  </g>
 </g>
 <g partID="854209600">
  <g transform="translate(224.214,142.823)">
   <g id="copper0" >
    <g fill="none" stroke-width="1.44" stroke="black" cy="4.752" id="6" cx="4.752" r="1.98" />
    <g fill="none" stroke-width="1.44" stroke="black" cy="26.352" id="7" cx="4.752" r="1.98" />
   </g>
  </g>
 </g>
 <g partID="854140790">
  <g transform="translate(339.126,84.9349)">
   <g id="copper0" >
    <g fill="none" stroke-width="1.44" stroke="black" cy="5.04" id="8" cx="5.04" r="2.088" />
    <g fill="none" stroke-width="1.44" stroke="black" cy="12.24" id="9" cx="5.04" r="2.088" />
    <g fill="none" stroke-width="1.44" stroke="black" cy="19.44" id="10" cx="5.04" r="2.088" />
   </g>
  </g>
 </g>
 <g partID="854160850">
  <g transform="translate(159.126,131.015)">
   <g transform="matrix(0,-1,1,0,0,0)">
    <g id="copper0" >
     <g fill="none" stroke-width="1.44" stroke="black" cy="5.04" id="11" cx="5.04" r="2.088" />
     <g fill="none" stroke-width="1.44" stroke="black" cy="12.24" id="12" cx="5.04" r="2.088" />
     <g fill="none" stroke-width="1.44" stroke="black" cy="19.44" id="13" cx="5.04" r="2.088" />
     <g fill="none" stroke-width="1.44" stroke="black" cy="26.64" id="14" cx="5.04" r="2.088" />
     <g fill="none" stroke-width="1.44" stroke="black" cy="33.84" id="15" cx="5.04" r="2.088" />
    </g>
   </g>
  </g>
 </g>
 <g partID="854125340">
  <g transform="translate(90.5162,136.775)">
   <g transform="matrix(1,0,0,1,0,0)">
    <g gorn="0.2.0" id="copper0" >
     <g fill="none" stroke-width="1.10268" connectorname="AD5/SCL" stroke="black" gorn="0.2.0.0" cy="46.8" id="16" r="1.96865" cx="109.65" />
     <g fill="none" stroke-width="1.10268" connectorname="AD4/SDA" stroke="black" gorn="0.2.0.1" cy="46.8" id="17" r="1.96865" cx="102.45" />
     <g fill="none" stroke-width="1.10268" connectorname="AD3" stroke="black" gorn="0.2.0.2" cy="46.8" id="18" r="1.96865" cx="95.2491" />
     <g fill="none" stroke-width="1.10268" connectorname="AD2" stroke="black" gorn="0.2.0.3" cy="46.8" id="19" r="1.96865" cx="88.0492" />
     <g fill="none" stroke-width="1.10268" connectorname="AD1" stroke="black" gorn="0.2.0.4" cy="46.8" id="20" r="1.96865" cx="80.8492" />
     <g fill="none" stroke-width="1.10268" connectorname="AD0" stroke="black" gorn="0.2.0.5" cy="46.8" id="21" r="1.96865" cx="73.6492" />
     <g fill="none" stroke-width="1.10268" connectorname="IO13" stroke="black" gorn="0.2.0.6" cy="3.6" id="22" r="1.96865" cx="16.0496" />
     <g fill="none" stroke-width="1.10268" connectorname="IO12" stroke="black" gorn="0.2.0.7" cy="3.6" id="23" r="1.96865" cx="23.2496" />
     <g fill="none" stroke-width="1.10268" connectorname="IO11" stroke="black" gorn="0.2.0.8" cy="3.6" id="24" r="1.96865" cx="30.4496" />
     <g fill="none" stroke-width="1.10268" connectorname="IO10" stroke="black" gorn="0.2.0.9" cy="3.6" id="25" r="1.96865" cx="37.6496" />
     <g fill="none" stroke-width="1.10268" connectorname="IO9" stroke="black" gorn="0.2.0.10" cy="3.6" id="26" r="1.96865" cx="44.8495" />
     <g fill="none" stroke-width="1.10268" connectorname="IO8" stroke="black" gorn="0.2.0.11" cy="3.6" id="27" r="1.96865" cx="52.0495" />
     <g fill="none" stroke-width="1.10268" connectorname="IO7" stroke="black" gorn="0.2.0.12" cy="3.6" id="28" r="1.96865" cx="59.2495" />
     <g fill="none" stroke-width="1.10268" connectorname="IO6" stroke="black" gorn="0.2.0.13" cy="3.6" id="29" r="1.96865" cx="66.4494" />
     <g fill="none" stroke-width="1.10268" connectorname="IO5" stroke="black" gorn="0.2.0.14" cy="3.6" id="30" r="1.96865" cx="73.6492" />
     <g fill="none" stroke-width="1.10268" connectorname="IO4" stroke="black" gorn="0.2.0.15" cy="3.6" id="31" r="1.96865" cx="80.8492" />
     <g fill="none" stroke-width="1.10268" connectorname="IO3" stroke="black" gorn="0.2.0.16" cy="3.6" id="32" r="1.96865" cx="88.0492" />
     <g fill="none" stroke-width="1.10268" connectorname="IO2" stroke="black" gorn="0.2.0.17" cy="3.6" id="33" r="1.96865" cx="95.2491" />
     <g fill="none" stroke-width="1.10268" connectorname="IO1" stroke="black" gorn="0.2.0.18" cy="3.6" id="34" r="1.96865" cx="102.45" />
     <g fill="none" stroke-width="1.10268" connectorname="IO0" stroke="black" gorn="0.2.0.19" cy="3.6" id="35" r="1.96865" cx="109.65" />
     <g fill="none" stroke-width="1.10268" connectorname="VBUS" stroke="black" gorn="0.2.0.20" cy="46.8" id="36" r="1.96865" cx="16.0496" />
     <g fill="none" stroke-width="1.10268" connectorname="RESET" stroke="black" gorn="0.2.0.21" cy="46.8" id="37" r="1.96865" cx="23.2496" />
     <g fill="none" stroke-width="1.10268" connectorname="3.3V" stroke="black" gorn="0.2.0.22" cy="46.8" id="38" r="1.96865" cx="30.4496" />
     <g fill="none" stroke-width="1.10268" connectorname="+5V" stroke="black" gorn="0.2.0.23" cy="46.8" id="39" r="1.96865" cx="37.6496" />
     <g fill="none" stroke-width="1.10268" connectorname="GND" stroke="black" gorn="0.2.0.24" cy="46.8" id="40" r="1.96865" cx="44.8495" />
     <g fill="none" stroke-width="1.10268" connectorname="GND" stroke="black" gorn="0.2.0.25" cy="46.8" id="41" r="1.96865" cx="52.0495" />
     <g fill="none" stroke-width="1.10268" connectorname="VIN" stroke="black" gorn="0.2.0.26" cy="46.8" id="42" r="1.96865" cx="59.2495" />
     <g fill="none" stroke-width="1.10268" connectorname="AREF" stroke="black" gorn="0.2.0.27" cy="46.8" id="43" r="1.96865" cx="66.4494" />
    </g>
   </g>
  </g>
 </g>
 <g partID="854127040">
  <g transform="translate(346.866,57.0709)">
   <g transform="matrix(-1,0,0,-1,0,0)">
    <g id="copper0" >
     <g id="copper1" >
      <!-- <rect width="55" x="10" y="15.5" fill="none" height="55" stroke="rgb(255, 191, 0)" stroke-width="20" />  -->
      <g fill="none" stroke-width="1.44" stroke="black" cy="3.096" id="44" cx="2.7" r="1.98" />
      <g fill="none" stroke-width="1.44" stroke="black" cy="3.096" id="45" cx="31.5" r="1.98" />
     </g>
    </g>
   </g>
  </g>
 </g>
 <g partID="854127020">
  <g transform="translate(346.866,49.8709)">
   <g transform="matrix(-1,0,0,-1,0,0)">
    <g id="copper0" >
     <g id="copper1" >
      <!-- <rect width="55" x="10" y="15.5" fill="none" height="55" stroke="rgb(255, 191, 0)" stroke-width="20" />  -->
      <g fill="none" stroke-width="1.44" stroke="black" cy="3.096" id="46" cx="2.7" r="1.98" />
      <g fill="none" stroke-width="1.44" stroke="black" cy="3.096" id="47" cx="31.5" r="1.98" />
     </g>
    </g>
   </g>
  </g>
 </g>
 <g partID="854127000">
  <g transform="translate(346.866,42.6709)">
   <g transform="matrix(-1,0,0,-1,0,0)">
    <g id="copper0" >
     <g id="copper1" >
      <!-- <rect width="55" x="10" y="15.5" fill="none" height="55" stroke="rgb(255, 191, 0)" stroke-width="20" />  -->
      <g fill="none" stroke-width="1.44" stroke="black" cy="3.096" id="48" cx="2.7" r="1.98" />
      <g fill="none" stroke-width="1.44" stroke="black" cy="3.096" id="49" cx="31.5" r="1.98" />
     </g>
    </g>
   </g>
  </g>
 </g>
 <g partID="854126970">
  <g transform="translate(346.866,35.4709)">
   <g transform="matrix(-1,0,0,-1,0,0)">
    <g id="copper0" >
     <g id="copper1" >
      <!-- <rect width="55" x="10" y="15.5" fill="none" height="55" stroke="rgb(255, 191, 0)" stroke-width="20" />  -->
      <g fill="none" stroke-width="1.44" stroke="black" cy="3.096" id="50" cx="2.7" r="1.98" />
      <g fill="none" stroke-width="1.44" stroke="black" cy="3.096" id="51" cx="31.5" r="1.98" />
     </g>
    </g>
   </g>
  </g>
 </g>
 <g partID="854133100">
  <g transform="translate(76.6858,17.9749)">
   <g id="copper0" >
    <g fill="none" stroke-width="1.44" x="20.664" stroke="black" width="3.96" id="52" height="3.96" y="5.184" />
    <g fill="none" stroke-width="1.44" stroke="black" cy="7.2" id="53" cx="22.68" r="1.98" />
    <g fill="none" stroke-width="1.44" stroke="black" cy="7.2" id="54" cx="29.88" r="1.98" />
    <g fill="none" stroke-width="1.44" stroke="black" cy="7.2" id="55" cx="37.08" r="1.98" />
    <g fill="none" stroke-width="1.44" stroke="black" cy="7.2" id="56" cx="44.28" r="1.98" />
    <g fill="none" stroke-width="1.44" stroke="black" cy="7.2" id="57" cx="51.48" r="1.98" />
    <g fill="none" stroke-width="1.44" stroke="black" cy="7.2" id="58" cx="58.68" r="1.98" />
    <g fill="none" stroke-width="1.44" stroke="black" cy="7.2" id="59" cx="65.88" r="1.98" />
    <g fill="none" stroke-width="1.44" stroke="black" cy="7.2" id="60" cx="73.08" r="1.98" />
    <g fill="none" stroke-width="1.44" stroke="black" cy="7.2" id="61" cx="80.28" r="1.98" />
    <g fill="none" stroke-width="1.44" stroke="black" cy="7.2" id="62" cx="87.48" r="1.98" />
    <g fill="none" stroke-width="1.44" stroke="black" cy="7.2" id="63" cx="94.68" r="1.98" />
    <g fill="none" stroke-width="1.44" stroke="black" cy="7.2" id="64" cx="101.88" r="1.98" />
    <g fill="none" stroke-width="1.44" stroke="black" cy="7.2" id="65" cx="109.08" r="1.98" />
    <g fill="none" stroke-width="1.44" stroke="black" cy="7.2" id="66" cx="116.28" r="1.98" />
    <g fill="none" stroke-width="1.44" stroke="black" cy="7.2" id="67" cx="123.48" r="1.98" />
    <g fill="none" stroke-width="1.44" stroke="black" cy="7.2" id="68" cx="130.68" r="1.98" />
   </g>
  </g>
 </g>
 <g partID="854136030">
  <g transform="translate(346.866,64.2709)">
   <g transform="matrix(-1,0,0,-1,0,0)">
    <g id="copper0" >
     <g id="copper1" >
      <!-- <rect width="55" x="10" y="15.5" fill="none" height="55" stroke="rgb(255, 191, 0)" stroke-width="20" />  -->
      <g fill="none" stroke-width="1.44" stroke="black" cy="3.096" id="69" cx="2.7" r="1.98" />
      <g fill="none" stroke-width="1.44" stroke="black" cy="3.096" id="70" cx="31.5" r="1.98" />
     </g>
    </g>
   </g>
  </g>
 </g>
 <g partID="854136150">
  <g transform="translate(312.666,65.2789)">
   <g id="copper0" >
    <g id="copper1" >
     <!-- <rect width="55" x="10" y="15.5" fill="none" height="55" stroke="rgb(255, 191, 0)" stroke-width="20" />  -->
     <g fill="none" stroke-width="1.44" stroke="black" cy="3.096" id="71" cx="2.7" r="1.98" />
     <g fill="none" stroke-width="1.44" stroke="black" cy="3.096" id="72" cx="31.5" r="1.98" />
    </g>
   </g>
  </g>
 </g>
 <g partID="854138530">
  <g transform="translate(311.046,78.4549)">
   <g stroke-width="0" gorn="0.3.0.0.0.0" id="copper0" >
    <g id="copper1" >
     <g stroke-width="1.44" fill="none" x="2.34" stroke="black" gorn="0.3.0.0.0.0.0" width="3.96" id="73" y="2.34" height="3.96" />
     <g stroke-width="1.44" fill="none" stroke="black" d="M 87.5,60 C 87.5,75.187831 75.187831,87.5 60,87.5 44.812169,87.5 32.5,75.187831 32.5,60 32.5,44.812169 44.812169,32.5 60,32.5 75.187831,32.5 87.5,44.812169 87.5,60 z" gorn="0.3.0.0.0.0.1" cy="4.32" id="74" cx="4.32" r="1.98" />
     <g stroke-width="1.44" fill="none" stroke="black" d="m 387.5,60 c 0,15.187831 -12.31217,27.5 -27.5,27.5 -15.18783,0 -27.5,-12.312169 -27.5,-27.5 0,-15.187831 12.31217,-27.5 27.5,-27.5 15.18783,0 27.5,12.312169 27.5,27.5 z" gorn="0.3.0.0.0.0.2" cy="4.32" id="75" cx="25.92" r="1.98" />
     <g stroke-width="1.44" fill="none" stroke="black" d="m 87.5,160 c 0,15.18783 -12.312169,27.5 -27.5,27.5 -15.187831,0 -27.5,-12.31217 -27.5,-27.5 0,-15.18783 12.312169,-27.5 27.5,-27.5 15.187831,0 27.5,12.31217 27.5,27.5 z" gorn="0.3.0.0.0.0.3" cy="11.52" id="76" cx="4.32" r="1.98" />
     <g stroke-width="1.44" fill="none" stroke="black" d="m 387.5,160 c 0,15.18783 -12.31217,27.5 -27.5,27.5 -15.18783,0 -27.5,-12.31217 -27.5,-27.5 0,-15.18783 12.31217,-27.5 27.5,-27.5 15.18783,0 27.5,12.31217 27.5,27.5 z" gorn="0.3.0.0.0.0.4" cy="11.52" id="77" cx="25.92" r="1.98" />
     <g stroke-width="1.44" fill="none" stroke="black" d="m 87.5,260 c 0,15.18783 -12.312169,27.5 -27.5,27.5 -15.187831,0 -27.5,-12.31217 -27.5,-27.5 0,-15.18783 12.312169,-27.5 27.5,-27.5 15.187831,0 27.5,12.31217 27.5,27.5 z" gorn="0.3.0.0.0.0.5" cy="18.72" id="78" cx="4.32" r="1.98" />
     <g stroke-width="1.44" fill="none" stroke="black" d="m 387.5,260 c 0,15.18783 -12.31217,27.5 -27.5,27.5 -15.18783,0 -27.5,-12.31217 -27.5,-27.5 0,-15.18783 12.31217,-27.5 27.5,-27.5 15.18783,0 27.5,12.31217 27.5,27.5 z" gorn="0.3.0.0.0.0.6" cy="18.72" id="79" cx="25.92" r="1.98" />
     <g stroke-width="1.44" fill="none" stroke="black" d="m 87.5,360 c 0,15.18783 -12.312169,27.5 -27.5,27.5 -15.187831,0 -27.5,-12.31217 -27.5,-27.5 0,-15.18783 12.312169,-27.5 27.5,-27.5 15.187831,0 27.5,12.31217 27.5,27.5 z" gorn="0.3.0.0.0.0.7" cy="25.92" id="80" cx="4.32" r="1.98" />
     <g stroke-width="1.44" fill="none" stroke="black" d="m 387.5,360 c 0,15.18783 -12.31217,27.5 -27.5,27.5 -15.18783,0 -27.5,-12.31217 -27.5,-27.5 0,-15.18783 12.31217,-27.5 27.5,-27.5 15.18783,0 27.5,12.31217 27.5,27.5 z" gorn="0.3.0.0.0.0.8" cy="25.92" id="81" cx="25.92" r="1.98" />
     <g stroke-width="1.44" fill="none" stroke="black" d="m 87.5,460 c 0,15.18783 -12.312169,27.5 -27.5,27.5 -15.187831,0 -27.5,-12.31217 -27.5,-27.5 0,-15.18783 12.312169,-27.5 27.5,-27.5 15.187831,0 27.5,12.31217 27.5,27.5 z" gorn="0.3.0.0.0.0.9" cy="33.12" id="82" cx="4.32" r="1.98" />
     <g stroke-width="1.44" fill="none" stroke="black" d="m 387.5,460 c 0,15.18783 -12.31217,27.5 -27.5,27.5 -15.18783,0 -27.5,-12.31217 -27.5,-27.5 0,-15.18783 12.31217,-27.5 27.5,-27.5 15.18783,0 27.5,12.31217 27.5,27.5 z" gorn="0.3.0.0.0.0.10" cy="33.12" id="83" cx="25.92" r="1.98" />
     <g stroke-width="1.44" fill="none" stroke="black" d="m 87.5,560 c 0,15.18783 -12.312169,27.5 -27.5,27.5 -15.187831,0 -27.5,-12.31217 -27.5,-27.5 0,-15.18783 12.312169,-27.5 27.5,-27.5 15.187831,0 27.5,12.31217 27.5,27.5 z" gorn="0.3.0.0.0.0.11" cy="40.32" id="84" cx="4.32" r="1.98" />
     <g stroke-width="1.44" fill="none" stroke="black" d="m 387.5,560 c 0,15.18783 -12.31217,27.5 -27.5,27.5 -15.18783,0 -27.5,-12.31217 -27.5,-27.5 0,-15.18783 12.31217,-27.5 27.5,-27.5 15.18783,0 27.5,12.31217 27.5,27.5 z" gorn="0.3.0.0.0.0.12" cy="40.32" id="85" cx="25.92" r="1.98" />
     <g stroke-width="1.44" fill="none" stroke="black" d="m 87.5,660 c 0,15.18783 -12.312169,27.5 -27.5,27.5 -15.187831,0 -27.5,-12.31217 -27.5,-27.5 0,-15.18783 12.312169,-27.5 27.5,-27.5 15.187831,0 27.5,12.31217 27.5,27.5 z" gorn="0.3.0.0.0.0.13" cy="47.52" id="86" cx="4.32" r="1.98" />
     <g stroke-width="1.44" fill="none" stroke="black" d="m 387.5,660 c 0,15.18783 -12.31217,27.5 -27.5,27.5 -15.18783,0 -27.5,-12.31217 -27.5,-27.5 0,-15.18783 12.31217,-27.5 27.5,-27.5 15.18783,0 27.5,12.31217 27.5,27.5 z" gorn="0.3.0.0.0.0.14" cy="47.52" id="87" cx="25.92" r="1.98" />
     <g stroke-width="1.44" fill="none" stroke="black" d="m 87.5,760 c 0,15.18783 -12.312169,27.5 -27.5,27.5 -15.187831,0 -27.5,-12.31217 -27.5,-27.5 0,-15.18783 12.312169,-27.5 27.5,-27.5 15.187831,0 27.5,12.31217 27.5,27.5 z" gorn="0.3.0.0.0.0.15" cy="54.72" id="88" cx="4.32" r="1.98" />
     <g stroke-width="1.44" fill="none" stroke="black" d="m 387.5,760 c 0,15.18783 -12.31217,27.5 -27.5,27.5 -15.18783,0 -27.5,-12.31217 -27.5,-27.5 0,-15.18783 12.31217,-27.5 27.5,-27.5 15.18783,0 27.5,12.31217 27.5,27.5 z" gorn="0.3.0.0.0.0.16" cy="54.72" id="89" cx="25.92" r="1.98" />
    </g>
   </g>
  </g>
 </g>
 <g partID="854139290">
  <g transform="translate(233.07,157.475)">
   <g transform="matrix(-4.44089e-16,-1,1,-4.44089e-16,0,0)">
    <g id="copper0" >
     <g id="copper1" >
      <!-- <rect width="55" x="10" y="15.5" fill="none" height="55" stroke="rgb(255, 191, 0)" stroke-width="20" />  -->
      <g fill="none" stroke-width="1.44" stroke="black" cy="3.096" id="90" cx="2.7" r="1.98" />
      <g fill="none" stroke-width="1.44" stroke="black" cy="3.096" id="91" cx="31.5" r="1.98" />
     </g>
    </g>
   </g>
  </g>
 </g>
 <g partID="854139320">
  <g transform="translate(240.27,157.475)">
   <g transform="matrix(-4.44089e-16,-1,1,-4.44089e-16,0,0)">
    <g id="copper0" >
     <g id="copper1" >
      <!-- <rect width="55" x="10" y="15.5" fill="none" height="55" stroke="rgb(255, 191, 0)" stroke-width="20" />  -->
      <g fill="none" stroke-width="1.44" stroke="black" cy="3.096" id="92" cx="2.7" r="1.98" />
      <g fill="none" stroke-width="1.44" stroke="black" cy="3.096" id="93" cx="31.5" r="1.98" />
     </g>
    </g>
   </g>
  </g>
 </g>
 <g partID="854299210">
  <g transform="translate(61.2058,142.535)">
   <g transform="matrix(0,1,-1,0,0,0)">
    <g id="copper0" >
     <g fill="none" stroke-width="1.44" stroke="black" cy="5.04" id="94" cx="5.04" r="2.088" />
    </g>
   </g>
  </g>
 </g>
 <g partID="854299170">
  <g transform="translate(51.1258,20.1349)">
   <g id="copper0" >
    <g fill="none" stroke-width="1.44" stroke="black" cy="5.04" id="95" cx="5.04" r="2.088" />
   </g>
  </g>
 </g>
 <g partID="854299290">
  <g transform="translate(27.8052,205.751)">
   <g transform="matrix(0,-1,1,0,0,0)">
    <g id="copper0">
     <g fill="none" stroke-width="1.44" x="5.616" stroke="black" id="96" width="4.32" height="4.32" y="4.60063"/>
     <g fill="none" stroke-width="1.44" stroke="black" cy="6.76063" id="97" cx="7.776" r="2.16"/>
     <g fill="none" stroke-width="1.44" stroke="black" cy="16.6819" id="98" cx="7.776" r="2.16"/>
    </g>
   </g>
  </g>
 </g>
 <g partID="854299250">
  <g transform="translate(0.725824,142.535)">
   <g id="copper0" >
    <g fill="none" stroke-width="1.44" stroke="black" cy="5.04" id="99" cx="5.04" r="2.088" />
   </g>
  </g>
 </g>
 <g partID="854298790">
  <g transform="translate(0.725824,20.1349)">
   <g id="copper0" >
    <g fill="none" stroke-width="1.44" stroke="black" cy="5.04" id="100" cx="5.04" r="2.088" />
   </g>
  </g>
 </g>
 <g partID="854298260">
  <g transform="translate(-2.8237,44.604)">
   <g id="copper0" >
    <rect fill="black" stroke-width="0" x="1.6" stroke="none" id="101" width="28.379" y="1.6" height="15.5418"  fill-opacity="1"/>
    <g fill="none" stroke-width="0" x="1.6" stroke="none" id="102" width="28.379" y="1.6" height="15.5418" />
   </g>
  </g>
 </g>
</svg>
