<?xml version='1.0' encoding='UTF-8' standalone='no'?>
<!-- Created with Fritzing (http://www.fritzing.org/) -->
<svg xmlns="http://www.w3.org/2000/svg" viewBox="0 0 370.826 230.655" x="0in" version="1.2" width="5.15035in" xmlns:svg="http://www.w3.org/2000/svg" y="0in" height="3.20354in"  baseProfile="tiny">
 <g partID="854243881">
  <g transform="translate(370.826,230.655)">
   <g transform="matrix(-1,0,0,-1,0,0)">
    <g id="silkscreen">
     <rect fill="none" stroke-width="0.576" x="0.288" stroke="black" width="370.25" height="230.079" y="0.288"/>
    </g>
   </g>
  </g>
 </g>
 <g partID="854243880">
  <g transform="translate(370.826,230.655)">
   <g transform="matrix(-1,0,0,-1,0,0)">
    <g id="board">
     <rect fill="none" stroke-width="0.5" x="0.288" stroke="black" id="boardoutline" width="370.25" height="230.079" y="0.288" fill-opacity="0.5"/>
    </g>
   </g>
  </g>
 </g>
 <g partID="854284500">
  <g transform="translate(358.222,55.0453)">
   <g transform="matrix(0,-1,1,0,0,0)">
    <g id="silkscreen">
     <text font-size="4.7971" xmlns:xml="http://www.w3.org/XML/1998/namespace" fill="black" stroke-width="0" xml:space="preserve" x="14.3913" text-anchor="middle" id="label" font-family="OCRA" y="4.31738">4x10k&#x3a9;</text>
    </g>
   </g>
  </g>
 </g>
 <g partID="854243881">
  <g transform="translate(370.826,230.655)">
   <g transform="matrix(-1,0,0,-1,0,0)">
    <g id="silkscreen">
     <rect fill="none" stroke-width="0.576" x="0.288" stroke="black" width="370.25" height="230.079" y="0.288"/>
    </g>
   </g>
  </g>
 </g>
 <g partID="854244891">
  <g transform="translate(234.006,224.615)">
   <g transform="matrix(-1,0,0,-1,0,0)">
    <g id="silkscreen">
     <line stroke-width="0.72" stroke="black" x2="1.44" y2="44.64" x1="1.44" y1="1.44"/>
     <line stroke-width="0.72" stroke="black" x2="8.64" y2="44.64" x1="1.44" y1="44.64"/>
     <line stroke-width="0.72" stroke="black" x2="8.64" y2="1.44" x1="8.64" y1="44.64"/>
     <line stroke-width="0.72" stroke="black" x2="1.44" y2="1.44" x1="8.64" y1="1.44"/>
     <line stroke-width="0.36" stroke="black" x2="3.96" y2="1.44" x1="1.44" y1="3.96"/>
     <!-- 120 -->
    </g>
   </g>
  </g>
 </g>
 <g partID="854209602">
  <g transform="translate(224.214,142.823)">
   <g id="silkscreen">
    <line stroke-width="1.512" stroke="black" x2="4.752" y2="23.652" x1="4.752" stroke-linecap="round" y1="7.452"/>
   </g>
  </g>
 </g>
 <g partID="854140791">
  <g transform="translate(339.126,84.9349)">
   <g id="silkscreen">
    <line stroke-width="0.72" stroke="black" x2="1.44" y2="23.04" x1="1.44" y1="1.44"/>
    <line stroke-width="0.72" stroke="black" x2="8.64" y2="23.04" x1="1.44" y1="23.04"/>
    <line stroke-width="0.72" stroke="black" x2="8.64" y2="1.44" x1="8.64" y1="23.04"/>
    <line stroke-width="0.72" stroke="black" x2="1.44" y2="1.44" x1="8.64" y1="1.44"/>
    <line stroke-width="0.36" stroke="black" x2="3.96" y2="1.44" x1="1.44" y1="3.96"/>
    <!-- 120 -->
   </g>
  </g>
 </g>
 <g partID="854160851">
  <g transform="translate(159.126,131.015)">
   <g transform="matrix(0,-1,1,0,0,0)">
    <g id="silkscreen">
     <line stroke-width="0.72" stroke="black" x2="1.44" y2="37.44" x1="1.44" y1="1.44"/>
     <line stroke-width="0.72" stroke="black" x2="8.64" y2="37.44" x1="1.44" y1="37.44"/>
     <line stroke-width="0.72" stroke="black" x2="8.64" y2="1.44" x1="8.64" y1="37.44"/>
     <line stroke-width="0.72" stroke="black" x2="1.44" y2="1.44" x1="8.64" y1="1.44"/>
     <line stroke-width="0.36" stroke="black" x2="3.96" y2="1.44" x1="1.44" y1="3.96"/>
     <!-- 120 -->
    </g>
   </g>
  </g>
 </g>
 <g partID="854125341">
  <g transform="translate(90.5162,136.775)">
   <g transform="matrix(1,0,0,1,0,0)">
    <g gorn="0.1" id="silkscreen">
     <path fill="none" stroke-width="0.575998" stroke="black" d="M1.93009,5.98217A5.47198,5.472,0,0,1,7.66336,0.288L118.028,0.288A5.47198,5.472,0,0,1,123.762,5.98217L123.762,44.4178A5.47198,5.472,0,0,1,118.028,50.112L7.66336,50.112A5.47198,5.472,0,0,1,1.93009,44.4178L1.93009,32.3177L2.64675,31.6059L2.64675,18.0823L1.93009,17.3705L1.93009,5.98217M13.1855,19.6724a0.704123,0.704126,0,1,0,1.40825,0,0.704123,0.704126,0,1,0,-1.40825,0zM13.1855,30.7276a0.704123,0.704126,0,1,0,1.40825,0,0.704123,0.704126,0,1,0,-1.40825,0zM4.21963,5.4a2.8301,2.83011,0,1,0,5.6602,0,2.8301,2.83011,0,1,0,-5.6602,0zM4.21963,45a2.8301,2.83011,0,1,0,5.6602,0,2.8301,2.83011,0,1,0,-5.6602,0zM115.82,5.4a2.8301,2.83011,0,1,0,5.6602,0,2.8301,2.83011,0,1,0,-5.6602,0zM115.1,45a2.8301,2.83011,0,1,0,5.6602,0,2.8301,2.83011,0,1,0,-5.6602,0z"/>
     <g>
      <title>element:JP3</title>
      <g>
       <title>package:1X08_ROUND_70</title>
      </g>
     </g>
     <g>
      <title>element:JP4</title>
      <g>
       <title>package:1X08_ROUND_70</title>
      </g>
     </g>
     <g>
      <title>element:U$7</title>
      <g>
       <title>package:METROMINI_SILK</title>
      </g>
     </g>
     <g>
      <title>element:U2</title>
      <g>
       <title>package:MLF32-TH</title>
       <line stroke-width="0.719997" x2="104.069" stroke="black" y2="26.8813" x1="104.069" stroke-linecap="round" y1="25.6787"/>
       <line stroke-width="0.719997" x2="94.6479" stroke="black" y2="35.0994" x1="95.851" stroke-linecap="round" y1="35.0994"/>
       <line stroke-width="0.719997" x2="86.4299" stroke="black" y2="25.6787" x1="86.4299" stroke-linecap="round" y1="26.8813"/>
       <line stroke-width="0.719997" x2="95.851" stroke="black" y2="17.4606" x1="94.6479" stroke-linecap="round" y1="17.4606"/>
       <circle fill="none" stroke-width="0.719997" stroke="black" cy="26.28" r="0.425195" cx="101.463"/>
      </g>
     </g>
     <g>
      <title>element:X3</title>
      <g>
       <title>package:4UCONN_20329</title>
       <line stroke-width="0.359999" x2="17.0077" stroke="black" y2="20.3811" x1="17.0077" stroke-linecap="round" y1="18.1134"/>
       <line stroke-width="0.359999" x2="17.0077" stroke="black" y2="32.2866" x1="17.0077" stroke-linecap="round" y1="30.0189"/>
       <line stroke-width="0.359999" x2="1.70077" stroke="black" y2="14.4284" x1="4.25195" stroke-linecap="round" y1="14.4284"/>
       <line stroke-width="0.359999" x2="1.70077" stroke="black" y2="35.9716" x1="1.70077" stroke-linecap="round" y1="14.4284"/>
       <line stroke-width="0.359999" x2="4.25195" stroke="black" y2="35.9716" x1="1.70077" stroke-linecap="round" y1="35.9716"/>
      </g>
     </g>
     <line fill="none" stroke-width="0.575998" x2="1.64975" stroke="black" y2="39.515" x1="0.287999" fill-opacity="1" y1="39.515"/>
     <line fill="none" stroke-width="0.575998" x2="1.64975" stroke="black" y2="10.885" x1="0.287999" fill-opacity="1" y1="10.885"/>
     <line fill="none" stroke-width="0.575998" x2="0.287999" stroke="black" y2="10.885" x1="0.287999" fill-opacity="1" y1="39.515"/>
    </g>
   </g>
  </g>
 </g>
 <g partID="854127041">
  <g transform="translate(346.866,57.0709)">
   <g transform="matrix(-1,0,0,-1,0,0)">
    <g id="silkscreen">
     <line stroke-width="0.72" stroke="black" x2="10.584" y2="3.096" x1="5.4" y1="3.096"/>
     <line stroke-width="0.72" stroke="black" x2="28.8" y2="3.096" x1="24.984" y1="3.096"/>
     <line stroke-width="0.72" stroke="black" x2="24.984" y2="0.72" x1="10.584" y1="0.72"/>
     <line stroke-width="0.72" stroke="black" x2="24.984" y2="5.472" x1="24.984" y1="0.72"/>
     <line stroke-width="0.72" stroke="black" x2="10.584" y2="5.472" x1="24.984" y1="5.472"/>
     <line stroke-width="0.72" stroke="black" x2="10.584" y2="0.72" x1="10.584" y1="5.472"/>
    </g>
   </g>
  </g>
 </g>
 <g partID="854127021">
  <g transform="translate(346.866,49.8709)">
   <g transform="matrix(-1,0,0,-1,0,0)">
    <g id="silkscreen">
     <line stroke-width="0.72" stroke="black" x2="10.584" y2="3.096" x1="5.4" y1="3.096"/>
     <line stroke-width="0.72" stroke="black" x2="28.8" y2="3.096" x1="24.984" y1="3.096"/>
     <line stroke-width="0.72" stroke="black" x2="24.984" y2="0.72" x1="10.584" y1="0.72"/>
     <line stroke-width="0.72" stroke="black" x2="24.984" y2="5.472" x1="24.984" y1="0.72"/>
     <line stroke-width="0.72" stroke="black" x2="10.584" y2="5.472" x1="24.984" y1="5.472"/>
     <line stroke-width="0.72" stroke="black" x2="10.584" y2="0.72" x1="10.584" y1="5.472"/>
    </g>
   </g>
  </g>
 </g>
 <g partID="854127001">
  <g transform="translate(346.866,42.6709)">
   <g transform="matrix(-1,0,0,-1,0,0)">
    <g id="silkscreen">
     <line stroke-width="0.72" stroke="black" x2="10.584" y2="3.096" x1="5.4" y1="3.096"/>
     <line stroke-width="0.72" stroke="black" x2="28.8" y2="3.096" x1="24.984" y1="3.096"/>
     <line stroke-width="0.72" stroke="black" x2="24.984" y2="0.72" x1="10.584" y1="0.72"/>
     <line stroke-width="0.72" stroke="black" x2="24.984" y2="5.472" x1="24.984" y1="0.72"/>
     <line stroke-width="0.72" stroke="black" x2="10.584" y2="5.472" x1="24.984" y1="5.472"/>
     <line stroke-width="0.72" stroke="black" x2="10.584" y2="0.72" x1="10.584" y1="5.472"/>
    </g>
   </g>
  </g>
 </g>
 <g partID="854126971">
  <g transform="translate(346.866,35.4709)">
   <g transform="matrix(-1,0,0,-1,0,0)">
    <g id="silkscreen">
     <line stroke-width="0.72" stroke="black" x2="10.584" y2="3.096" x1="5.4" y1="3.096"/>
     <line stroke-width="0.72" stroke="black" x2="28.8" y2="3.096" x1="24.984" y1="3.096"/>
     <line stroke-width="0.72" stroke="black" x2="24.984" y2="0.72" x1="10.584" y1="0.72"/>
     <line stroke-width="0.72" stroke="black" x2="24.984" y2="5.472" x1="24.984" y1="0.72"/>
     <line stroke-width="0.72" stroke="black" x2="10.584" y2="5.472" x1="24.984" y1="5.472"/>
     <line stroke-width="0.72" stroke="black" x2="10.584" y2="0.72" x1="10.584" y1="5.472"/>
    </g>
   </g>
  </g>
 </g>
 <g partID="854133101">
  <g transform="translate(76.6858,17.9749)">
   <g id="silkscreen">
    <rect fill="none" stroke-width="0.72" x="0" stroke="black" width="226.8" height="102.024" y="0"/>
    <rect fill="none" stroke-width="0.72" x="19.44" stroke="black" width="115.2" height="7.2" y="3.6"/>
   </g>
  </g>
 </g>
 <g partID="854136031">
  <g transform="translate(346.866,64.2709)">
   <g transform="matrix(-1,0,0,-1,0,0)">
    <g id="silkscreen">
     <line stroke-width="0.72" stroke="black" x2="10.584" y2="3.096" x1="5.4" y1="3.096"/>
     <line stroke-width="0.72" stroke="black" x2="28.8" y2="3.096" x1="24.984" y1="3.096"/>
     <line stroke-width="0.72" stroke="black" x2="24.984" y2="0.72" x1="10.584" y1="0.72"/>
     <line stroke-width="0.72" stroke="black" x2="24.984" y2="5.472" x1="24.984" y1="0.72"/>
     <line stroke-width="0.72" stroke="black" x2="10.584" y2="5.472" x1="24.984" y1="5.472"/>
     <line stroke-width="0.72" stroke="black" x2="10.584" y2="0.72" x1="10.584" y1="5.472"/>
    </g>
   </g>
  </g>
 </g>
 <g partID="854136151">
  <g transform="translate(312.666,65.2789)">
   <g id="silkscreen">
    <line stroke-width="0.72" stroke="black" x2="10.584" y2="3.096" x1="5.4" y1="3.096"/>
    <line stroke-width="0.72" stroke="black" x2="28.8" y2="3.096" x1="24.984" y1="3.096"/>
    <line stroke-width="0.72" stroke="black" x2="24.984" y2="0.72" x1="10.584" y1="0.72"/>
    <line stroke-width="0.72" stroke="black" x2="24.984" y2="5.472" x1="24.984" y1="0.72"/>
    <line stroke-width="0.72" stroke="black" x2="10.584" y2="5.472" x1="24.984" y1="5.472"/>
    <line stroke-width="0.72" stroke="black" x2="10.584" y2="0.72" x1="10.584" y1="5.472"/>
   </g>
  </g>
 </g>
 <g partID="854138531">
  <g transform="translate(311.046,78.4549)">
   <g stroke-width="0" gorn="0.4.0.0.0.0" id="silkscreen">
    <line stroke-width="0.72" stroke="black" x2="0.72" y2="59.04" x1="0.72" gorn="0.4.0.0.0.0.0" id="line37" y1="0.72"/>
    <line stroke-width="0.72" stroke="black" x2="29.52" y2="59.04" x1="0.72" gorn="0.4.0.0.0.0.1" id="line39" y1="59.04"/>
    <line stroke-width="0.72" stroke="black" x2="29.52" y2="0.72" x1="29.52" gorn="0.4.0.0.0.0.2" id="line41" y1="59.04"/>
    <line stroke-width="0.72" stroke="black" x2="11.52" y2="0.72" x1="0.72" gorn="0.4.0.0.0.0.3" id="line43" y1="0.72"/>
    <line stroke-width="0.72" stroke="black" x2="29.52" y2="0.72" x1="18.72" gorn="0.4.0.0.0.0.4" id="line45" y1="0.72"/>
   </g>
  </g>
 </g>
 <g partID="854139291">
  <g transform="translate(233.07,157.475)">
   <g transform="matrix(-4.44089e-16,-1,1,-4.44089e-16,0,0)">
    <g id="silkscreen">
     <line stroke-width="0.72" stroke="black" x2="10.584" y2="3.096" x1="5.4" y1="3.096"/>
     <line stroke-width="0.72" stroke="black" x2="28.8" y2="3.096" x1="24.984" y1="3.096"/>
     <line stroke-width="0.72" stroke="black" x2="24.984" y2="0.72" x1="10.584" y1="0.72"/>
     <line stroke-width="0.72" stroke="black" x2="24.984" y2="5.472" x1="24.984" y1="0.72"/>
     <line stroke-width="0.72" stroke="black" x2="10.584" y2="5.472" x1="24.984" y1="5.472"/>
     <line stroke-width="0.72" stroke="black" x2="10.584" y2="0.72" x1="10.584" y1="5.472"/>
    </g>
   </g>
  </g>
 </g>
 <g partID="854139321">
  <g transform="translate(240.27,157.475)">
   <g transform="matrix(-4.44089e-16,-1,1,-4.44089e-16,0,0)">
    <g id="silkscreen">
     <line stroke-width="0.72" stroke="black" x2="10.584" y2="3.096" x1="5.4" y1="3.096"/>
     <line stroke-width="0.72" stroke="black" x2="28.8" y2="3.096" x1="24.984" y1="3.096"/>
     <line stroke-width="0.72" stroke="black" x2="24.984" y2="0.72" x1="10.584" y1="0.72"/>
     <line stroke-width="0.72" stroke="black" x2="24.984" y2="5.472" x1="24.984" y1="0.72"/>
     <line stroke-width="0.72" stroke="black" x2="10.584" y2="5.472" x1="24.984" y1="5.472"/>
     <line stroke-width="0.72" stroke="black" x2="10.584" y2="0.72" x1="10.584" y1="5.472"/>
    </g>
   </g>
  </g>
 </g>
 <g partID="854298791">
  <g transform="translate(0.725824,20.1349)">
   <g id="silkscreen">
    <line stroke-width="0.72" stroke="black" x2="1.44" y2="8.64" x1="1.44" y1="1.44"/>
    <line stroke-width="0.72" stroke="black" x2="8.64" y2="8.64" x1="1.44" y1="8.64"/>
    <line stroke-width="0.72" stroke="black" x2="8.64" y2="1.44" x1="8.64" y1="8.64"/>
    <line stroke-width="0.72" stroke="black" x2="1.44" y2="1.44" x1="8.64" y1="1.44"/>
    <line stroke-width="0.36" stroke="black" x2="3.96" y2="1.44" x1="1.44" y1="3.96"/>
    <!-- 120 -->
   </g>
  </g>
 </g>
 <g partID="854299171">
  <g transform="translate(51.1258,20.1349)">
   <g id="silkscreen">
    <line stroke-width="0.72" stroke="black" x2="1.44" y2="8.64" x1="1.44" y1="1.44"/>
    <line stroke-width="0.72" stroke="black" x2="8.64" y2="8.64" x1="1.44" y1="8.64"/>
    <line stroke-width="0.72" stroke="black" x2="8.64" y2="1.44" x1="8.64" y1="8.64"/>
    <line stroke-width="0.72" stroke="black" x2="1.44" y2="1.44" x1="8.64" y1="1.44"/>
    <line stroke-width="0.36" stroke="black" x2="3.96" y2="1.44" x1="1.44" y1="3.96"/>
    <!-- 120 -->
   </g>
  </g>
 </g>
 <g partID="854299211">
  <g transform="translate(61.2058,142.535)">
   <g transform="matrix(0,1,-1,0,0,0)">
    <g id="silkscreen">
     <line stroke-width="0.72" stroke="black" x2="1.44" y2="8.64" x1="1.44" y1="1.44"/>
     <line stroke-width="0.72" stroke="black" x2="8.64" y2="8.64" x1="1.44" y1="8.64"/>
     <line stroke-width="0.72" stroke="black" x2="8.64" y2="1.44" x1="8.64" y1="8.64"/>
     <line stroke-width="0.72" stroke="black" x2="1.44" y2="1.44" x1="8.64" y1="1.44"/>
     <line stroke-width="0.36" stroke="black" x2="3.96" y2="1.44" x1="1.44" y1="3.96"/>
     <!-- 120 -->
    </g>
   </g>
  </g>
 </g>
 <g partID="854299251">
  <g transform="translate(0.725824,142.535)">
   <g id="silkscreen">
    <line stroke-width="0.72" stroke="black" x2="1.44" y2="8.64" x1="1.44" y1="1.44"/>
    <line stroke-width="0.72" stroke="black" x2="8.64" y2="8.64" x1="1.44" y1="8.64"/>
    <line stroke-width="0.72" stroke="black" x2="8.64" y2="1.44" x1="8.64" y1="8.64"/>
    <line stroke-width="0.72" stroke="black" x2="1.44" y2="1.44" x1="8.64" y1="1.44"/>
    <line stroke-width="0.36" stroke="black" x2="3.96" y2="1.44" x1="1.44" y1="3.96"/>
    <!-- 120 -->
   </g>
  </g>
 </g>
 <g partID="854299291">
  <g transform="translate(27.8052,205.751)">
   <g transform="matrix(0,-1,1,0,0,0)">
    <g id="silkscreen">
     <line stroke-width="0.72" stroke="black" x2="1.44" y2="22.0026" x1="1.44" id="vertical-left" y1="1.44"/>
     <line stroke-width="0.72" stroke="black" x2="16.992" y2="22.0026" x1="1.44" id="bottom" y1="22.0026"/>
     <line stroke-width="0.72" stroke="black" x2="16.992" y2="1.44" x1="16.992" id="vertical-right" y1="22.0026"/>
     <line stroke-width="0.72" stroke="black" x2="1.44" y2="1.44" x1="16.992" id="top" y1="1.44"/>
     <line stroke-width="0.36" stroke="black" x2="14.112" y2="1.44" x1="14.112" id="mid-vertical" y1="22.0026"/>
    </g>
   </g>
  </g>
 </g>
 <g partID="854299350">
  <g transform="translate(50.7703,167.318)">
   <g id="silkscreen">
    <text font-size="7.2" xmlns:xml="http://www.w3.org/XML/1998/namespace" stroke-width="0" fill="black" xml:space="preserve" x="3.6" text-anchor="middle" id="label" font-family="OCRA" y="6.48">+</text>
   </g>
  </g>
 </g>
 <g partID="854299380">
  <g transform="translate(19.6342,166.447)">
   <g id="silkscreen">
    <text font-size="7.2" xmlns:xml="http://www.w3.org/XML/1998/namespace" stroke-width="0" fill="black" xml:space="preserve" x="3.6" text-anchor="middle" id="label" font-family="OCRA" y="6.48">-</text>
   </g>
  </g>
 </g>
 <g partID="854127000" id="partLabel">
  <g transform="translate(349.364,36.4805)">
   <g font-size="5" font-weight="normal" fill="#000000" stroke="none" font-style="normal" id="silkscreenLabel" font-family="'OCRA'" fill-opacity="1">
    <text x="0" y="3.75">R2</text>
   </g>
  </g>
 </g>
 <g partID="854126970" id="partLabel">
  <g transform="translate(349.679,30.3877)">
   <g font-size="5" font-weight="normal" fill="#000000" stroke="none" font-style="normal" id="silkscreenLabel" font-family="'OCRA'" fill-opacity="1">
    <text x="0" y="3.75">R1</text>
   </g>
  </g>
 </g>
 <g partID="854136030" id="partLabel">
  <g transform="translate(293.847,56.0733)">
   <g font-size="5" font-weight="normal" fill="#000000" stroke="none" font-style="normal" id="silkscreenLabel" font-family="'OCRA'" fill-opacity="1">
    <text x="0" y="3.75">R5</text>
    <text x="0" y="8.75">220k&#x3a9;</text>
   </g>
  </g>
 </g>
 <g partID="854127040" id="partLabel">
  <g transform="translate(349.402,50.1413)">
   <g font-size="5" font-weight="normal" fill="#000000" stroke="none" font-style="normal" id="silkscreenLabel" font-family="'OCRA'" fill-opacity="1">
    <text x="0" y="3.75">R4</text>
   </g>
  </g>
 </g>
 <g partID="854127020" id="partLabel">
  <g transform="translate(349.407,43.3189)">
   <g font-size="5" font-weight="normal" fill="#000000" stroke="none" font-style="normal" id="silkscreenLabel" font-family="'OCRA'" fill-opacity="1">
    <text x="0" y="3.75">R3</text>
   </g>
  </g>
 </g>
 <g partID="854125340" id="partLabel">
  <g transform="translate(179.072,146.113)">
   <g transform="matrix(1,0,0,1,0,0)">
    <g font-size="5" font-weight="normal" fill="#000000" stroke="none" font-style="normal" id="silkscreenLabel" font-family="'OCRA'" fill-opacity="1">
     <text x="0" y="3.75">Arduino</text>
    </g>
   </g>
  </g>
 </g>
 <g partID="854136150" id="partLabel">
  <g transform="translate(347.738,63.5432)">
   <g font-size="5" font-weight="normal" fill="#000000" stroke="none" font-style="normal" id="silkscreenLabel" font-family="'OCRA'" fill-opacity="1">
    <text x="0" y="3.75">R6</text>
    <text x="0" y="8.75">2.2k&#x3a9;</text>
   </g>
  </g>
 </g>
 <g partID="854139320" id="partLabel">
  <g transform="translate(248.183,143.864)">
   <g transform="matrix(0,-1,1,0,0,0)">
    <g font-size="5" font-weight="normal" fill="#000000" stroke="none" font-style="normal" id="silkscreenLabel" font-family="'OCRA'" fill-opacity="1">
     <text x="0" y="3.75">R8</text>
     <text x="0" y="8.75">220&#x3a9;</text>
    </g>
   </g>
  </g>
 </g>
 <g partID="854139290" id="partLabel">
  <g transform="translate(222.183,143.402)">
   <g transform="matrix(-4.44089e-16,-1,1,-4.44089e-16,0,0)">
    <g font-size="5" font-weight="normal" fill="#000000" stroke="none" font-style="normal" id="silkscreenLabel" font-family="'OCRA'" fill-opacity="1">
     <text x="0" y="3.75">R7</text>
     <text x="0" y="8.75">220&#x3a9;</text>
    </g>
   </g>
  </g>
 </g>
 <g partID="854140790" id="partLabel">
  <g transform="translate(350.183,108.388)">
   <g transform="matrix(0,-1,1,0,0,0)">
    <g font-size="5" font-weight="normal" fill="#000000" stroke="none" font-style="normal" id="silkscreenLabel" font-family="'OCRA'" fill-opacity="1">
     <text x="0" y="3.75">Aparat</text>
    </g>
   </g>
  </g>
 </g>
 <g partID="854138530" id="partLabel">
  <g transform="translate(323.834,127.908)">
   <g transform="matrix(0,-1,1,0,0,0)">
    <g font-size="5" font-weight="normal" fill="#000000" stroke="none" font-style="normal" id="silkscreenLabel" font-family="'OCRA'" fill-opacity="1">
     <text x="0" y="3.75">Transoptor</text>
    </g>
   </g>
  </g>
 </g>
 <g partID="854160850" id="partLabel">
  <g transform="translate(122.873,123.511)">
   <g transform="matrix(1,0,0,1,0,0)">
    <g font-size="5" font-weight="normal" fill="#000000" stroke="none" font-style="normal" id="silkscreenLabel" font-family="'OCRA'" fill-opacity="1">
     <text x="0" y="3.75">Klawiatura</text>
    </g>
   </g>
  </g>
 </g>
 <g partID="854298790" id="partLabel">
  <g transform="translate(10.8058,14.5349)">
   <g font-size="5" font-weight="normal" fill="#000000" stroke="none" font-style="normal" id="silkscreenLabel" font-family="'OCRA'" fill-opacity="1">
    <text x="0" y="3.75">OUT-</text>
   </g>
  </g>
 </g>
 <g partID="854299170" id="partLabel">
  <g transform="translate(61.2058,14.5349)">
   <g font-size="5" font-weight="normal" fill="#000000" stroke="none" font-style="normal" id="silkscreenLabel" font-family="'OCRA'" fill-opacity="1">
    <text x="0" y="3.75">OUT+</text>
   </g>
  </g>
 </g>
 <g partID="854299210" id="partLabel">
  <g transform="translate(61.2058,136.935)">
   <g font-size="5" font-weight="normal" fill="#000000" stroke="none" font-style="normal" id="silkscreenLabel" font-family="'OCRA'" fill-opacity="1">
    <text x="0" y="3.75">IN+</text>
   </g>
  </g>
 </g>
 <g partID="854299250" id="partLabel">
  <g transform="translate(10.8058,136.935)">
   <g font-size="5" font-weight="normal" fill="#000000" stroke="none" font-style="normal" id="silkscreenLabel" font-family="'OCRA'" fill-opacity="1">
    <text x="0" y="3.75">IN-</text>
   </g>
  </g>
 </g>
 <g partID="854299290" id="partLabel">
  <g transform="translate(30.3817,206.885)">
   <g font-size="5" font-weight="normal" fill="#000000" stroke="none" font-style="normal" id="silkscreenLabel" font-family="'OCRA'" fill-opacity="1">
    <text x="0" y="3.75">6-30V</text>
   </g>
  </g>
 </g>
 <g partID="854244890" id="partLabel">
  <g transform="translate(242.696,198.85)">
   <g transform="matrix(1,0,0,1,0,0)">
    <g font-size="5" font-weight="normal" fill="#000000" stroke="none" font-style="normal" id="silkscreenLabel" font-family="'OCRA'" fill-opacity="1">
     <text x="0" y="3.75">Sterownik silnika krokowego</text>
    </g>
   </g>
  </g>
 </g>
 <g partID="854133100" id="partLabel">
  <g transform="translate(214.374,22.6197)">
   <g font-size="5" font-weight="normal" fill="#000000" stroke="none" font-style="normal" id="silkscreenLabel" font-family="'OCRA'" fill-opacity="1">
    <text x="0" y="3.75">LCD</text>
   </g>
  </g>
 </g>
</svg>
